<?xml version="1.0" encoding="UTF-8" standalone="no"?>
<svg
   xmlns:dc="http://purl.org/dc/elements/1.1/"
   xmlns:cc="http://creativecommons.org/ns#"
   xmlns:rdf="http://www.w3.org/1999/02/22-rdf-syntax-ns#"
   xmlns:svg="http://www.w3.org/2000/svg"
   xmlns="http://www.w3.org/2000/svg"
   xmlns:sodipodi="http://sodipodi.sourceforge.net/DTD/sodipodi-0.dtd"
   xmlns:inkscape="http://www.inkscape.org/namespaces/inkscape"
   width="102.57119mm"
   height="89.205505mm"
   viewBox="0 0 102.57119 89.205505"
   version="1.1"
   id="svg8"
   inkscape:version="1.0.1 (3bc2e813f5, 2020-09-07)"
   sodipodi:docname="CoffeeHttpLogo.svg">
  <defs
     id="defs2" />
  <sodipodi:namedview
     id="base"
     pagecolor="#ffffff"
     bordercolor="#666666"
     borderopacity="1.0"
     inkscape:pageopacity="0.0"
     inkscape:pageshadow="2"
     inkscape:zoom="1.5363866"
     inkscape:cx="102.43764"
     inkscape:cy="187.5625"
     inkscape:document-units="mm"
     inkscape:current-layer="layer1"
     inkscape:document-rotation="0"
     showgrid="false"
     inkscape:snap-smooth-nodes="true"
     inkscape:object-paths="true"
     inkscape:snap-nodes="true"
     inkscape:object-nodes="true"
     inkscape:snap-intersection-paths="true"
     fit-margin-top="0"
     fit-margin-left="0"
     fit-margin-right="0"
     fit-margin-bottom="0"
     inkscape:window-width="1920"
     inkscape:window-height="1001"
     inkscape:window-x="-9"
     inkscape:window-y="-9"
     inkscape:window-maximized="1" />
  <metadata
     id="metadata5">
    <rdf:RDF>
      <cc:Work
         rdf:about="">
        <dc:format>image/svg+xml</dc:format>
        <dc:type
           rdf:resource="http://purl.org/dc/dcmitype/StillImage" />
        <dc:title></dc:title>
      </cc:Work>
    </rdf:RDF>
  </metadata>
  <g
     inkscape:label="Ebene 1"
     inkscape:groupmode="layer"
     id="layer1"
     transform="translate(-37.897904,-52.638647)">
    <g
       id="g1688">
      <path
         id="path940"
         style="color:#000000;font-style:normal;font-variant:normal;font-weight:normal;font-stretch:normal;font-size:medium;line-height:normal;font-family:sans-serif;font-variant-ligatures:normal;font-variant-position:normal;font-variant-caps:normal;font-variant-numeric:normal;font-variant-alternates:normal;font-variant-east-asian:normal;font-feature-settings:normal;font-variation-settings:normal;text-indent:0;text-align:start;text-decoration:none;text-decoration-line:none;text-decoration-style:solid;text-decoration-color:#000000;letter-spacing:normal;word-spacing:normal;text-transform:none;writing-mode:lr-tb;direction:ltr;text-orientation:mixed;dominant-baseline:auto;baseline-shift:baseline;text-anchor:start;white-space:normal;shape-padding:0;shape-margin:0;inline-size:0;clip-rule:nonzero;display:inline;overflow:visible;visibility:visible;isolation:auto;mix-blend-mode:normal;color-interpolation:sRGB;color-interpolation-filters:linearRGB;solid-color:#000000;solid-opacity:1;vector-effect:none;fill:#000000;fill-opacity:1;fill-rule:nonzero;stroke:none;stroke-width:4;stroke-linecap:butt;stroke-linejoin:miter;stroke-miterlimit:4;stroke-dasharray:none;stroke-dashoffset:0;stroke-opacity:1;color-rendering:auto;image-rendering:auto;shape-rendering:auto;text-rendering:auto;enable-background:accumulate;stop-color:#000000"
         d="m 109.9628,52.638647 c -16.874471,0 -30.499951,14.35491 -30.499951,31.896761 0,1.372235 0.08315,2.724582 0.244946,4.052465 l 4.029728,-0.0083 0.0021,0.0011 c -0.181213,-1.320091 -0.276469,-2.670223 -0.276469,-4.045231 0,-15.481003 11.89282,-27.896488 26.499676,-27.896488 14.60686,0 26.50225,12.415485 26.50225,27.896488 0,11.492648 -6.55672,21.293528 -15.91065,25.581908 l 0.002,0.002 c 0,0 -0.12688,2.11401 -1.27382,4.79144 12.30062,-4.13186 21.18217,-16.213875 21.18217,-30.37489 0,-17.541851 -13.62754,-31.896762 -30.50201,-31.896762 z" />
      <path
         id="path940-7"
         style="color:#000000;font-style:normal;font-variant:normal;font-weight:normal;font-stretch:normal;font-size:medium;line-height:normal;font-family:sans-serif;font-variant-ligatures:normal;font-variant-position:normal;font-variant-caps:normal;font-variant-numeric:normal;font-variant-alternates:normal;font-variant-east-asian:normal;font-feature-settings:normal;font-variation-settings:normal;text-indent:0;text-align:start;text-decoration:none;text-decoration-line:none;text-decoration-style:solid;text-decoration-color:#000000;letter-spacing:normal;word-spacing:normal;text-transform:none;writing-mode:lr-tb;direction:ltr;text-orientation:mixed;dominant-baseline:auto;baseline-shift:baseline;text-anchor:start;white-space:normal;shape-padding:0;shape-margin:0;inline-size:0;clip-rule:nonzero;display:inline;overflow:visible;visibility:visible;isolation:auto;mix-blend-mode:normal;color-interpolation:sRGB;color-interpolation-filters:linearRGB;solid-color:#000000;solid-opacity:1;vector-effect:none;fill:#000000;fill-opacity:1;fill-rule:nonzero;stroke:none;stroke-width:4;stroke-linecap:butt;stroke-linejoin:miter;stroke-miterlimit:4;stroke-dasharray:none;stroke-dashoffset:0;stroke-opacity:1;color-rendering:auto;image-rendering:auto;shape-rendering:auto;text-rendering:auto;enable-background:accumulate;stop-color:#000000"
         d="m 107.60067,54.007556 -20.036507,6.665225 c -4.999419,5.149932 -8.101314,12.339238 -8.101314,20.262847 0,1.217366 0.07299,2.417109 0.214974,3.595129 l 3.537767,-0.0072 0.0016,5.3e-4 c -0.159079,-1.171107 -0.242877,-2.368585 -0.242877,-3.588412 0,-13.733838 10.440381,-24.74836 23.263177,-24.74836 0.30505,0 0.60829,0.0083 0.91054,0.02066 z m 16.82429,11.479403 c 3.17568,4.225356 5.07773,9.588995 5.07773,15.448669 0,7.774561 -3.349,14.67358 -8.57932,19.199862 l 0.008,-0.002 -0.0372,4.47363 c 7.30333,-5.066563 12.12019,-13.797882 12.12019,-23.670906 0,-5.272138 -1.37386,-10.218936 -3.76566,-14.456482 z" />
      <path
         id="path940-0"
         style="color:#000000;font-style:normal;font-variant:normal;font-weight:normal;font-stretch:normal;font-size:medium;line-height:normal;font-family:sans-serif;font-variant-ligatures:normal;font-variant-position:normal;font-variant-caps:normal;font-variant-numeric:normal;font-variant-alternates:normal;font-variant-east-asian:normal;font-feature-settings:normal;font-variation-settings:normal;text-indent:0;text-align:start;text-decoration:none;text-decoration-line:none;text-decoration-style:solid;text-decoration-color:#000000;letter-spacing:normal;word-spacing:normal;text-transform:none;writing-mode:lr-tb;direction:ltr;text-orientation:mixed;dominant-baseline:auto;baseline-shift:baseline;text-anchor:start;white-space:normal;shape-padding:0;shape-margin:0;inline-size:0;clip-rule:nonzero;display:inline;overflow:visible;visibility:visible;isolation:auto;mix-blend-mode:normal;color-interpolation:sRGB;color-interpolation-filters:linearRGB;solid-color:#000000;solid-opacity:1;vector-effect:none;fill:#000000;fill-opacity:1;fill-rule:nonzero;stroke:none;stroke-width:4;stroke-linecap:butt;stroke-linejoin:miter;stroke-miterlimit:4;stroke-dasharray:none;stroke-dashoffset:0;stroke-opacity:1;color-rendering:auto;image-rendering:auto;shape-rendering:auto;text-rendering:auto;enable-background:accumulate;stop-color:#000000"
         d="m 110.5886,59.948793 c -15.495997,0 -28.250538,10.757435 -30.231232,24.586615 h 4.032829 c 1.933094,-11.954184 12.94896,-21.031792 26.198403,-21.031792 13.24943,0 24.26749,9.077608 26.20098,21.031792 h 3.67523 c 0.0262,-1.324305 -0.0762,-2.278731 -0.078,-2.295469 C 137.39961,69.5347 125.21525,59.949312 110.5886,59.949312 Z" />
      <path
         id="path921"
         style="fill:#f2f2f2;fill-opacity:1;stroke:none;stroke-width:2.5;stroke-miterlimit:4;stroke-dasharray:none;stroke-opacity:1"
         d="M 120.93318,72.273924 A 39.470718,12.261524 0 0 1 81.462464,84.535452 39.470718,12.261524 0 0 1 41.991744,72.273924 39.470718,12.261524 0 0 1 81.462464,60.0124 39.470718,12.261524 0 0 1 120.93318,72.273924 Z" />
      <path
         style="color:#000000;font-style:normal;font-variant:normal;font-weight:normal;font-stretch:normal;font-size:medium;line-height:normal;font-family:sans-serif;font-variant-ligatures:normal;font-variant-position:normal;font-variant-caps:normal;font-variant-numeric:normal;font-variant-alternates:normal;font-variant-east-asian:normal;font-feature-settings:normal;font-variation-settings:normal;text-indent:0;text-align:start;text-decoration:none;text-decoration-line:none;text-decoration-style:solid;text-decoration-color:#000000;letter-spacing:normal;word-spacing:normal;text-transform:none;writing-mode:lr-tb;direction:ltr;text-orientation:mixed;dominant-baseline:auto;baseline-shift:baseline;text-anchor:start;white-space:normal;shape-padding:0;shape-margin:0;inline-size:0;clip-rule:nonzero;display:inline;overflow:visible;visibility:visible;isolation:auto;mix-blend-mode:normal;color-interpolation:sRGB;color-interpolation-filters:linearRGB;solid-color:#000000;solid-opacity:1;vector-effect:none;fill:#000000;fill-opacity:1;fill-rule:nonzero;stroke:none;stroke-width:2.5;stroke-linecap:butt;stroke-linejoin:miter;stroke-miterlimit:4;stroke-dasharray:none;stroke-dashoffset:0;stroke-opacity:1;color-rendering:auto;image-rendering:auto;shape-rendering:auto;text-rendering:auto;enable-background:accumulate;stop-color:#000000"
         d="m 81.462734,55.947272 c -11.64931,0 -22.19844,1.606947 -30.00902,4.296897 -3.90448,1.344697 -7.13789,2.953173 -9.51673,4.89014 -2.05402,1.672479 -3.54013,3.707493 -3.91398,6.010487 h -0.0977 v 1.129128 0.903822 31.381544 0.006 c -0.0172,0.41599 -0.0274,0.83422 -0.0274,1.25522 1e-5,20.11041 19.71636,36.02364 43.54102,36.02364 23.324086,0 42.658706,-15.26348 43.462966,-34.77358 h 0.0961 V 72.273913 71.144785 h -0.0977 c -0.37396,-2.303089 -1.86054,-4.33806 -3.91449,-6.010486 -2.37854,-1.936726 -5.61005,-3.545398 -9.51466,-4.890141 -7.81057,-2.689944 -18.359196,-4.296896 -30.008496,-4.296896 z m 0,4.064868 c 11.27098,0 21.475856,1.593578 28.684546,4.076237 3.6033,1.240973 6.45589,2.718623 8.27236,4.197678 1.82245,1.483926 2.51354,2.812645 2.51354,3.987869 0,1.175229 -0.69099,2.503344 -2.51354,3.987355 -1.81647,1.479055 -4.66905,2.956698 -8.27236,4.197676 -7.20869,2.482655 -17.413556,4.076235 -28.684546,4.076235 -11.27099,0 -21.478,-1.5936 -28.68662,-4.076235 -3.60331,-1.240978 -6.4559,-2.718623 -8.27237,-4.197676 -1.8223,-1.48381 -2.51199,-2.811354 -2.51199,-3.987355 0,-1.175999 0.68979,-2.504141 2.51199,-3.987869 1.81647,-1.479055 4.66906,-2.956705 8.27237,-4.197678 7.20862,-2.482636 17.41563,-4.076237 28.68662,-4.076237 z m -39.4839,19.430857 c 2.37519,1.923023 5.59143,3.522713 9.47488,4.860173 7.81058,2.689943 18.35971,4.296893 30.00902,4.296893 11.64931,0 22.197926,-1.60696 30.008496,-4.296893 3.87812,-1.33563 7.08805,-2.93325 9.46195,-4.852423 v 17.013436 l -0.002,5.3e-4 v 6.814047 h -0.0129 v 0.76585 h -0.0341 l 0.0217,1.27124 c 0.003,0.18606 0.008,0.35396 0.008,0.50488 -1e-5,17.42742 -17.44895,31.95722 -39.474586,31.95722 -21.93361,0 -39.31565,-14.41091 -39.46064,-31.74121 v -0.94982 c 0.004,-0.12621 0.007,-0.24847 0.0124,-0.36432 l 0.001,-0.0259 -5.3e-4,-8.373127 -0.0129,-0.002 z"
         id="path916" />
      <path
         id="path12"
         style="fill:#000000;stroke-width:0.264583"
         d="m 69.023429,97.62579 a 9.4733168,9.4733168 0 0 0 -9.437573,9.47332 9.4733168,9.4733168 0 0 0 9.473317,9.47331 9.4733168,9.4733168 0 0 0 6.434487,-2.52076 l -2.344079,-2.34408 a 6.1619747,6.1619747 0 0 1 -4.090408,1.55343 6.1619747,6.1619747 0 0 1 -6.161907,-6.1619 6.1619747,6.1619747 0 0 1 6.143798,-6.16207 6.1619747,6.1619747 0 0 1 0.01811,0 6.1619747,6.1619747 0 0 1 4.090407,1.55358 l 2.344078,-2.34408 a 9.4733168,9.4733168 0 0 0 -6.434486,-2.52075 9.4733168,9.4733168 0 0 0 -0.03574,0 z m -0.05275,4.80862 a 4.6646811,4.6646811 0 0 0 -3.168428,1.24117 l 0.0085,0.009 a 4.6646811,4.6646811 0 0 0 -1.487134,3.41503 4.6646811,4.6646811 0 0 0 1.487134,3.41502 l -0.0085,0.008 a 4.6646811,4.6646811 0 0 0 3.16827,1.24133 4.6646811,4.6646811 0 0 0 1.61e-4,0 4.6646811,4.6646811 0 0 0 0.01764,0 4.6646811,4.6646811 0 0 0 3.16827,-1.24133 l -0.0083,-0.008 a 4.6646811,4.6646811 0 0 0 1.487134,-3.41502 4.6646811,4.6646811 0 0 0 -1.487134,-3.41503 l 0.0083,-0.009 a 4.6646811,4.6646811 0 0 0 -3.16827,-1.24117 4.6646811,4.6646811 0 0 0 -0.01764,0 z m 5.835002,0.45791 v 1.45423 2.02552 1.45407 3.47974 h 1.61248 v -3.47974 h 2.212592 l 0.839624,-1.45407 h -3.052216 v -2.02552 h 3.796255 l 0.839623,-1.45423 h -4.635878 z m 7.418666,0 v 1.45423 2.02552 1.45407 3.47974 h 1.612479 v -3.47974 h 2.212593 l 0.839625,-1.45407 h -3.052218 v -2.02552 h 3.796256 l 0.839621,-1.45423 h -4.635877 z m 7.418666,0 v 1.45423 2.02552 1.45407 2.02552 1.45422 h 1.612478 4.635874 l -0.83962,-1.45422 h -3.796254 v -2.02552 h 2.212594 l 0.83962,-1.45407 h -3.052214 v -2.02552 h 3.620674 l 0.83978,-1.45423 h -4.460454 z m 6.159382,0 0.089,0.0514 v -0.0514 z m 1.25928,0 v 1.45423 2.02552 1.45407 2.02552 1.45422 h 1.61248 4.635885 l -0.83962,-1.45422 h -3.796265 v -2.02552 h 2.212595 l 0.83963,-1.45407 h -3.052225 v -2.02552 h 3.796265 l 0.83962,-1.45423 h -4.635885 z m -28.104538,1.17267 a 3.0341692,3.0341692 0 0 1 0.0098,0 3.0341692,3.0341692 0 0 1 0.0038,0 3.0341692,3.0341692 0 0 1 3.034106,3.03412 3.0341692,3.0341692 0 0 1 -3.015367,3.0341 3.0341692,3.0341692 0 0 1 -9.66e-4,0 3.0341692,3.0341692 0 0 1 -3.034264,-3.0341 3.0341692,3.0341692 0 0 1 2.995999,-3.03395 3.0341692,3.0341692 0 0 1 0.0069,-1.7e-4 z" />
    </g>
  </g>
</svg>
